<svg width="256" height="256" viewBox="0 0 256 256" fill="none" xmlns="http://www.w3.org/2000/svg">
<rect x="15" y="16" width="226" height="223" rx="32" fill="white"/>
<path d="M27.2195 103.376L44.5355 183H68.2155L78.1315 126.464H78.4275L88.9355 183H112.172L129.34 103.376H109.804L100.184 159.912H99.8875L89.3795 103.376H67.1795L57.2635 159.912H56.9675L47.6435 103.376H27.2195ZM147.559 80.584V103.376H137.199V117.288H147.559V162.872C147.559 166.917 147.805 170.272 148.299 172.936C148.792 175.6 149.68 177.771 150.963 179.448C152.344 181.027 154.268 182.112 156.735 182.704C159.3 183.197 162.556 183.444 166.503 183.444C168.871 183.444 171.091 183.345 173.163 183.148C175.333 183.049 177.553 183 179.823 183V168.792C179.132 168.891 178.392 168.989 177.603 169.088C176.813 169.088 176.024 169.088 175.235 169.088C172.275 169.088 170.301 168.447 169.315 167.164C168.427 165.783 167.983 163.513 167.983 160.356V117.288H179.823V103.376H167.983V80.584H147.559ZM197.272 117.288V183H217.696V117.288H229.536V103.376H217.696V96.42C217.696 94.1507 218.288 92.5227 219.472 91.536C220.656 90.5493 222.678 90.056 225.54 90.056H227.464C228.352 90.056 229.042 90.1053 229.536 90.204V75.7C225.885 75.404 222.234 75.256 218.584 75.256C215.328 75.256 212.368 75.6013 209.704 76.292C207.04 76.884 204.77 77.92 202.896 79.4C201.12 80.88 199.738 82.8533 198.752 85.32C197.765 87.7867 197.272 90.796 197.272 94.348V103.376H186.912V117.288H197.272Z" fill="#845EEE"/>
</svg>
