<svg width="256" height="256" viewBox="0 0 256 256" fill="none" xmlns="http://www.w3.org/2000/svg">
<rect x="8" y="8" width="240" height="240" rx="37.5" fill="white"/>
<path d="M20.9765 101.444L39.3652 186H64.5121L75.0423 125.962H75.3567L86.5156 186H111.191L129.423 101.444H108.676L98.4604 161.482H98.146L86.9871 101.444H63.4119L52.8816 161.482H52.5673L42.6657 101.444H20.9765ZM148.77 77.2396V101.444H137.768V116.217H148.77V164.625C148.77 168.921 149.032 172.484 149.556 175.313C150.08 178.142 151.023 180.447 152.385 182.228C153.852 183.904 155.895 185.057 158.515 185.686C161.239 186.21 164.697 186.472 168.888 186.472C171.402 186.472 173.76 186.367 175.96 186.157C178.265 186.052 180.623 186 183.033 186V170.912C182.299 171.017 181.514 171.121 180.675 171.226C179.837 171.226 178.999 171.226 178.161 171.226C175.017 171.226 172.922 170.545 171.874 169.183C170.931 167.716 170.459 165.306 170.459 161.953V116.217H183.033V101.444H170.459V77.2396H148.77ZM201.563 116.217V186H223.252V116.217H235.825V101.444H223.252V94.0566C223.252 91.6467 223.881 89.9179 225.138 88.8701C226.395 87.8223 228.543 87.2984 231.582 87.2984H233.625C234.568 87.2984 235.301 87.3508 235.825 87.4556V72.0531C231.949 71.7388 228.072 71.5816 224.195 71.5816C220.737 71.5816 217.594 71.9483 214.765 72.6818C211.936 73.3104 209.526 74.4106 207.535 75.9823C205.649 77.554 204.182 79.6496 203.134 82.269C202.087 84.8885 201.563 88.0842 201.563 91.8563V101.444H190.561V116.217H201.563Z" fill="#845EEE"/>
</svg>
