<svg width="540" height="130" viewBox="0 0 540 130" fill="none" xmlns="http://www.w3.org/2000/svg">
<g clip-path="url(#clip0_2_8)">
<path d="M180.663 99.3652C175.242 99.5017 169.906 97.994 165.359 95.0407C161.11 92.2387 157.954 88.0599 156.423 83.2062L165.739 79.7837C167.029 82.7651 169.139 85.3195 171.823 87.1507C174.546 88.9757 177.765 89.9213 181.043 89.8599C184.194 90.0245 187.304 89.0832 189.835 87.1986C192.067 85.3239 193.283 82.5046 193.114 79.594C193.127 78.2569 192.817 76.9364 192.211 75.7444C191.684 74.6779 190.994 73.6996 190.167 72.8442C189.121 71.8921 187.935 71.1065 186.65 70.5152C185.065 69.7244 183.75 69.1223 182.706 68.7091C181.66 68.2985 180.123 67.744 178.096 67.0457C175.56 66.1589 173.659 65.4622 172.392 64.9553C170.675 64.2248 169.009 63.3831 167.402 62.4357C165.672 61.5181 164.1 60.3312 162.744 58.9194C161.57 57.5409 160.624 55.9843 159.94 54.3082C157.248 47.7551 159.047 40.2149 164.407 35.5828C168.21 32.2243 173.375 30.5446 179.902 30.5446C185.351 30.5446 189.834 31.7487 193.352 34.1568C196.766 36.4268 199.273 39.8257 200.433 43.7581L191.308 46.7995C190.391 44.74 188.843 43.0255 186.888 41.904C184.523 40.592 181.844 39.9509 179.141 40.05C176.491 39.8979 173.865 40.6339 171.679 42.1415C169.867 43.5455 168.856 45.7457 168.97 48.0347C168.986 49.7839 169.746 51.4434 171.06 52.598C172.324 53.8415 173.806 54.8405 175.433 55.5446C176.955 56.1785 179.268 57.034 182.373 58.111C184.273 58.8093 185.682 59.3322 186.602 59.6797C187.521 60.0272 188.868 60.6132 190.642 61.4379C192.064 62.0673 193.431 62.8146 194.729 63.672C195.891 64.5079 197.002 65.4125 198.056 66.3812C199.202 67.3751 200.181 68.5464 200.956 69.8503C201.694 71.2028 202.268 72.6385 202.666 74.1269C203.152 75.8757 203.392 77.6835 203.381 79.4984C203.381 85.7097 201.257 90.5731 197.011 94.0888C192.765 97.6069 187.316 99.3657 180.663 99.3652ZM241.592 98.2248L218.778 31.6851H229.425L244.539 78.073C245.374 80.5676 246.073 83.1063 246.63 85.6775C247.187 83.106 247.885 80.5673 248.722 78.073L263.645 31.6851H274.197L251.478 98.2248H241.592ZM294.347 98.2248V31.6855H335.602V41.0015H304.234V59.252H324.479V68.5679H304.234V88.9089H337.692V98.2248H294.347ZM362.881 98.2249V31.6855H372.768V88.7194H405.277V98.2249H362.881ZM442.537 41.1909V98.2248H432.65V41.1909H413.831V31.6855H461.358V41.191L442.537 41.1909ZM481.794 98.2248V31.6855H523.049V41.0015H491.681V59.252H511.927V68.5679H491.681V88.9089H525.14V98.2248H481.794Z" fill="#4A4A55"/>
<path d="M111.329 19.03C99.7279 2.42614 76.8161 -2.49531 60.2499 8.05959L31.1554 26.6028C23.2081 31.6025 17.7341 39.7183 16.0758 48.9599C14.688 56.6587 15.9078 64.6005 19.5422 71.5278C17.0518 75.3057 15.3533 79.5492 14.5492 84.002C12.8748 93.421 15.065 103.117 20.6254 110.902C32.2287 127.508 55.1407 132.427 71.7044 121.873L100.799 103.33C108.747 98.3303 114.221 90.2143 115.878 80.9724C117.266 73.2737 116.047 65.3321 112.414 58.4039C114.904 54.6262 116.602 50.3828 117.405 45.9303C119.08 36.5113 116.89 26.8144 111.329 19.03Z" fill="#FF3E00"/>
<path d="M57.4074 112.465C48.0295 114.903 38.1264 111.232 32.6035 103.27C29.2589 98.5889 27.9414 92.7576 28.9486 87.0931C29.1174 86.1725 29.3497 85.2647 29.6439 84.3761L30.1918 82.7054L31.6823 83.8002C35.1247 86.3296 38.9737 88.2527 43.0634 89.4867L44.1447 89.8147L44.0452 90.8939C43.9131 92.4293 44.3288 93.9618 45.2187 95.2198C46.8808 97.6182 49.8626 98.7249 52.687 97.9918C53.3193 97.8228 53.9219 97.5579 54.474 97.2064L83.5685 78.6653C85.008 77.7589 86 76.289 86.3022 74.615C86.6038 72.9077 86.2068 71.1509 85.2005 69.7391C83.5375 67.3403 80.555 66.2331 77.7295 66.9656C77.098 67.1346 76.4961 67.3993 75.9447 67.7504L64.8421 74.828C63.0165 75.9887 61.0242 76.8637 58.9342 77.4224C49.556 79.8608 39.6525 76.1899 34.1295 68.228C30.7849 63.5467 29.4674 57.7154 30.4746 52.051C31.4717 46.4938 34.7638 41.6137 39.5433 38.6081L68.636 20.0655C70.4624 18.9028 72.4562 18.0268 74.5479 17.4679C83.9259 15.0296 93.8291 18.7006 99.3521 26.6623C102.697 31.3435 104.014 37.1749 103.007 42.8393C102.837 43.7598 102.605 44.6675 102.312 45.5563L101.764 47.227L100.274 46.1339C96.8318 43.603 92.9824 41.679 88.8921 40.445L87.8109 40.1168L87.9104 39.0376C88.0415 37.5024 87.6258 35.9703 86.7369 34.7118C85.0748 32.3135 82.093 31.2068 79.2686 31.9399C78.6363 32.1089 78.0337 32.3738 77.4816 32.7253L48.3865 51.2671C46.9468 52.173 45.9551 53.6432 45.6545 55.3174C45.3511 57.0246 45.7473 58.7821 46.754 60.1939C48.4171 62.5927 51.3996 63.6999 54.2251 62.9674C54.8573 62.7981 55.4599 62.5332 56.0121 62.182L67.1132 55.1071C68.9381 53.9448 70.9303 53.0691 73.0205 52.5106C82.3986 50.0722 92.3021 53.7432 97.8251 61.705C101.17 66.3862 102.487 72.2176 101.48 77.882C100.482 83.4395 97.1904 88.32 92.4113 91.327L63.3191 109.867C61.4926 111.03 59.4989 111.906 57.4071 112.465" fill="white"/>
</g>
<defs>
<clipPath id="clip0_2_8">
<rect width="540" height="130" fill="white"/>
</clipPath>
</defs>
</svg>
